# Blender v2.79 (sub 0) OBJ File: 'SkyBox.blend'
# www.blender.org
mtllib SkyBox.mtl
o Cube_Cube.001
v -136.422928 -35.488312 259.928406
v -136.422928 384.511688 259.928406
v -136.422928 -35.488312 -160.071594
v -136.422928 384.511688 -160.071594
v 283.577087 -35.488312 259.928406
v 283.577087 384.511688 259.928406
v 283.577087 -35.488312 -160.071594
v 283.577087 384.511688 -160.071594
vt 0.249623 0.500754
vt 0.489944 0.292987
vt 0.499246 0.499204
vt 0.250387 0.749621
vt 0.493809 0.996061
vt 0.493809 0.749621
vt 0.659461 0.514466
vt 0.915285 0.263293
vt 0.913734 0.512916
vt -0.003059 0.251173
vt 0.246564 0.500796
vt -0.004609 0.499246
vt 0.252764 0.252723
vt 0.497736 0.003100
vt 0.497736 0.249623
vt 0.496522 0.747773
vt 0.250000 0.496601
vt 0.496522 0.498151
vt 0.249623 0.252682
vt 0.248837 0.996061
vt 0.659461 0.264844
vt 0.248114 0.252723
vt 0.252764 0.003100
vt 0.250000 0.746223
vn -1.0000 0.0000 0.0000
vn 0.0000 0.0000 -1.0000
vn 1.0000 0.0000 0.0000
vn 0.0000 0.0000 1.0000
vn 0.0000 -1.0000 0.0000
vn 0.0000 1.0000 0.0000
usemtl Material.001
s off
f 2/1/1 3/2/1 1/3/1
f 4/4/2 7/5/2 3/6/2
f 8/7/3 5/8/3 7/9/3
f 6/10/4 1/11/4 5/12/4
f 7/13/5 1/14/5 3/15/5
f 4/16/6 6/17/6 8/18/6
f 2/1/1 4/19/1 3/2/1
f 4/4/2 8/20/2 7/5/2
f 8/7/3 6/21/3 5/8/3
f 6/10/4 2/22/4 1/11/4
f 7/13/5 5/23/5 1/14/5
f 4/16/6 2/24/6 6/17/6
